<svg width="188" height="39" viewBox="0 0 188 39" fill="none" xmlns="http://www.w3.org/2000/svg"><path d="M167.99 10.32l-.12.74 1 1.8c1.3-.93 2.42-1.81 3.34-2.54h-4.22zM173.47 11.34l1.36-3.24a55.04 55.04 0 00-3.43 4.7c-.45.65-.93 1.35-1.4 2.08l2.43 4.38c1.46-1.03 2.74-2 3.78-2.83l-2.74-5.1zM175.48 26.84l-1.06 1.56h2.33l.28-1.75 1.88-4.5a55.02 55.02 0 00-3.43 4.69zM182.4 10.32l-4.03 4.77c-1.13 1.5-3.08 4.2-4.88 7.06l-.83 5.26a85.71 85.71 0 005.3-4.09l.3-1.95 8.94-10.3.12-.75h-4.91zM161.9 10.32h-11.07l-2.84 18.08h4.64l1-6.34h2.7l3.28 5.03c1.5-1.05 2.8-2.05 3.87-2.9l-1.55-2.27a7.24 7.24 0 003.93-1.76 6.01 6.01 0 001.82-3.58l.05-.28c.29-1.85-.09-3.31-1.13-4.38-1.04-1.07-2.61-1.6-4.7-1.6zm1.1 5.95l-.04.28a1.88 1.88 0 01-.75 1.3c-.42.29-.97.43-1.68.43h-6.3l.58-3.72h6.3c1.45 0 2.07.57 1.9 1.71zM163.13 26.32c-.46.66-.94 1.36-1.4 2.08h4l.11-.74-1.12-1.64 1.84-4.39a54.89 54.89 0 00-3.43 4.7z" fill="#ED1D49"/><path d="M72.13 20.76c.3.66.37 1.43.24 2.32l-.05.27A5.27 5.27 0 0170 27.03a8.74 8.74 0 01-5.03 1.34h-11l2.86-18.09h10.45c2.09 0 3.63.42 4.64 1.27 1 .85 1.39 2.05 1.14 3.6l-.04.28a5.2 5.2 0 01-2.4 3.7c.67.37 1.2.94 1.52 1.63zM60.8 14.47l-.45 2.87h5.8c.65 0 1.15-.1 1.49-.32a1.33 1.33 0 00.61-.97l.04-.28c.14-.86-.42-1.3-1.68-1.3H60.8zm6.88 8.05c.14-.9-.43-1.35-1.7-1.35h-6.23l-.48 3h6.23c1.28 0 2-.45 2.14-1.37l.04-.28zM76.16 10.28h15.66l-.66 4.22H80.15l-.43 2.73h10.49l-.66 4.16H79.07l-.43 2.76h11l-.66 4.22H73.32l2.84-18.09zM99.36 14.64h-6.38l.68-4.36h17.42l-.68 4.36h-6.39l-2.15 13.73H97.2l2.15-13.73z" fill="#fff"/><path d="M113.04 10.28h15.68l-.68 4.36H117l-.46 2.95h10.51l-.68 4.35h-10.52l-1 6.43h-4.66l2.85-18.09zM132.42 27.64a5.96 5.96 0 01-2.59-3.1 9.06 9.06 0 01-.34-4.66l1.5-9.6h4.65l-1.52 9.68c-.21 1.38-.03 2.43.56 3.14.59.71 1.57 1.07 2.94 1.07 1.38 0 2.48-.35 3.3-1.07a5.06 5.06 0 001.54-3.14l1.51-9.68h4.66l-1.5 9.6a11 11 0 01-1.83 4.67 9.52 9.52 0 01-3.58 3.09c-1.5.74-3.15 1.11-4.82 1.09a8.62 8.62 0 01-4.48-1.1z" fill="#ED1D49"/><path d="M27.62 8.94c-11.91 0-16.97 7.58-16.97 7.58.73-.23 1.5-.28 2.25-.16 0 0-4.43 4.46-6.63 10.53 0 0 5.48-.66 10.05 2.24-1.13-9.5 7.6-12.88 10.77-10.64-.43-1.25-1.95-3.27-5.96-2.4 3.57-3.7 10.65-2.1 14.28 2.38.26-.7.42-1.43.5-2.17 0 0 2.07 1.08 2.65 2.82.13-1.15 1.08-2.53 1.08-2.53s.77 1 1.28 2.74a3.54 3.54 0 013.34-1.41s-4.72-8.98-16.64-8.98z" fill="#5F5F68"/><path d="M21.13 16.09c-5.15 1.43-8.32 5.25-9.59 11.13 1.7.35 3.31.99 4.78 1.9-1.12-9.49 7.61-12.88 10.77-10.63-.44-1.26-1.96-3.27-5.96-2.4z" fill="#fff"/><path d="M33 9.61c3.16 1.34 6.26 3.01 8.3 7.51l1.26.98a3.71 3.71 0 011.7-.18S40.97 11.7 33 9.62z" fill="#636363"/><path d="M21.45 11.23c-3.01-4.4-7.13-5.89-7.13-5.89s-3.15 2.24-2.35 7.4c.57-2.94 2.25-4.38 2.25-4.38s2 1.48 2.84 4.5c.84 3 4.4-1.63 4.4-1.63z" fill="#5F5F68"/><path d="M41.62 20.95c.65-1.47 1.85-1.51 1.85-1.51-.09.9-.37 1.8-.81 2.6-.27-.43-.62-.8-1.04-1.09zM29.1 22.5c6.96 1.27 7.65 9.35 11.66 9.35 2.44 0 3.32-1.42 3.32-1.42-1.57.2-2.71-1.17-2.8-2.1-.07-.94.13-2.17.13-2.17s2.14.1 3.05.82c.85-.49 1.94-.6 1.94-.6s-1.14-1.8-4.14-2.67a5.65 5.65 0 01-1.34 1.66s-1.89-2.99-6.44-4.06c.32.6.52 1.25.58 1.92 0 0-2.1-1.66-5.95-.73z" fill="#fff"/><path d="M28.84 26.26c-.81-.91-.64-1.8-.64-1.8s.4-.41 1.59-.41c2.52 0 4.79 4.49 6.8 6.38-2.89-1.01-8.1 2-9.07-3.6.9 1.57 2.15 1.58 2.15 1.58-.18-.4-.24-.85-.18-1.3.77.84 2.34.87 2.34.87a7.28 7.28 0 01-2.3-3.2c-.59.59-.69 1.48-.69 1.48z" fill="#fff"/><path d="M28.16 22.9c-3.95 1.24-1.65 9.31 3.68 8.7 5.32-.62 7.6.96 8.54 3.4a9.15 9.15 0 00-4.94-1.45 2.95 2.95 0 011.7 2.1 5.11 5.11 0 00-3.56-1.4c-2.83 0-5.76 1.04-8.2.01-2.61-3.54-1.55-7.02-1.55-7.02-1.13.61-1.37 1.89-1.37 1.89s-.77-6.28 5.7-6.23z" fill="#fff"/><path d="M40.38 35c-5.6-6.7-14.69 2.9-16.54-7.76 0 0-1.07 3.48 1.54 7.02 2.44 1.03 5.37-.02 8.2-.02 1.33-.01 2.6.5 3.56 1.41a2.95 2.95 0 00-1.7-2.1c1.75 0 3.46.5 4.94 1.44z" fill="#5F5F68"/><path d="M28.49 16.5a14.39 14.39 0 002.04 3.42s1.32.18 2.53-.37c0 0-1.3-2.23-4.57-3.06z" fill="#fff"/><path d="M31.88 9.35c3.16 1.33 5.16 2.93 6.36 6.71l1.88.43c.75 1.4 3.5 1.35 4.14 1.42 0 0-3.62-6.92-12.38-8.56zM35.46 7.1c1.13-2.03 2.63-2.43 2.63-2.43s1.95 2.38 2.08 6.31a13.8 13.8 0 00-3.8-2.02 5.2 5.2 0 012.21.27 6.4 6.4 0 00-1.2-3.3s-.73.17-1.92 1.18zM44.52 29.54a7.42 7.42 0 001.64-2.18 5 5 0 00-1.3.43 4.26 4.26 0 00-.34 1.75z" fill="#ED1D49"/><path d="M38.8 0l-.54.27a16.52 16.52 0 00-3.72 2.4 20.27 20.27 0 00-2.35 2.3l-.35.44s-5.24-.01-7.6 1.94c3.77-.87 8.33 0 8.33 0l.34-.49.13-.18.16-.19.31-.38.67-.75a18.52 18.52 0 013.07-2.55c.39-.25.78-.48 1.18-.7a12.71 12.71 0 012.5 4.1 14.88 14.88 0 01.99 4.66v.64l-.02.5.41.29.08.05.08.06.18.13a7.73 7.73 0 011.01.9 12.28 12.28 0 012.17 2.86c.24.46.44.94.6 1.43a21.9 21.9 0 01-1.22 3.84l-.12.27-.12.25-.36.72.67.41c.72.46 1.39.98 2 1.57.16.14.3.3.45.45a9.55 9.55 0 011.15 1.5 9.85 9.85 0 011.47 4.1v.01a16.94 16.94 0 00-3.6 1.99A19.37 19.37 0 0043.24 36a19.23 19.23 0 016.05-3.22c.72-.21 1.44-.38 2.18-.5l.65-.1v-.96l-.01-.19a8 8 0 00-.14-1.12 11.53 11.53 0 00-2.48-5.3l-.49-.57a13.93 13.93 0 00-2.17-1.89 20.46 20.46 0 001.05-3.03l.3-1.28.05-.22-.07-.22a11.75 11.75 0 00-1.92-3.69 14.08 14.08 0 00-2.53-2.57l-.05-.04v-.31a14.73 14.73 0 00-.27-2.29 16.7 16.7 0 00-1.45-4.35A15 15 0 0038.81 0z" fill="#ED1D49"/><path d="M44.18 17.77l-.1-.19.1.2zM44.2 17.83l-.02-.06.03.06zM44.22 17.85l-.01-.03.01.03zM44.25 17.92l-.03-.07.03.07zM40.12 17.38c.33.62.6 1.28.8 1.95a3.54 3.54 0 013.33-1.41 4.43 4.43 0 00-4.13-.54zM35.91 16.3c-4.24-5.23-13.61-6.49-19.7.14a6.1 6.1 0 014.9-.34l.03-.02c3.57-3.69 10.65-2.09 14.27 2.39.25-.7.42-1.43.5-2.17z" fill="#fff"/><path d="M21.5 36.83a30 30 0 00-7.75-4.84A33.27 33.27 0 007.9 30.1a36.99 36.99 0 00-5.07-.75 29.6 29.6 0 014.07-9.2l.2-.3.21-.28 1.2-1.55-1.95.15-.87.06.01-.02a21.32 21.32 0 013.65-3.65l.35-.27V13.46v-.42a19.93 19.93 0 01.25-2.52c.17-1.1.43-2.2.78-3.25a13.3 13.3 0 011.4-2.97 9.24 9.24 0 011.79-2.05 26.06 26.06 0 013.77 1.91 20.67 20.67 0 013.21 2.52l.2.2.09.1.07.1.37.41C18.57 2.2 13.62.3 13.62.3l-.38.28a10.7 10.7 0 00-2.57 2.78A14.99 14.99 0 009.08 6.7a21.28 21.28 0 00-1.06 5.35 23.66 23.66 0 00-.07 1.37v.04l-.4.33a27.77 27.77 0 00-2.01 1.93c-.44.46-.85.94-1.23 1.45-.4.53-.74 1.09-1.03 1.68l-.64 1.35 1.49-.11.77-.06a29.99 29.99 0 00-4 9.94L.7 31h1.05a36.1 36.1 0 015.91.38c1.97.28 3.9.76 5.78 1.4a29.45 29.45 0 017.93 4.2c.8.61 1.56 1.28 2.25 2.01-.64-.78-1.35-1.5-2.12-2.17zM38.52 13.93a5 5 0 01-.27 2.13c-.97-1.6-3.54-3.31-3.54-3.31s.17 2.44-.46 4.19l1.27 1.21c.2-.6.32-1.22.4-1.85a6.38 6.38 0 012.64 2.82 5.9 5.9 0 001.08-2.54c.43.62.78 1.3 1.03 2l1.14-.57a8.86 8.86 0 00-3.3-4.08z" fill="#fff"/></svg>